<svg xmlns="http://www.w3.org/2000/svg" version="1.1" xmlns:xlink="http://www.w3.org/1999/xlink" xmlns:svgjs="http://svgjs.dev/svgjs" width="1000" height="1000" viewBox="0 0 1000 1000"><g transform="matrix(1,0,0,1,-0.14221556886212738,-0.14221556886229791)"><svg viewBox="0 0 334 334" data-background-color="#ffffff" preserveAspectRatio="xMidYMid meet" height="1000" width="1000" xmlns="http://www.w3.org/2000/svg" xmlns:xlink="http://www.w3.org/1999/xlink"><g id="tight-bounds" transform="matrix(1,0,0,1,0.04749999999998522,0.04750000000001364)"><svg viewBox="0 0 333.90454557049503 333.90454557049503" height="333.90454557049503" width="333.90454557049503"><g><svg></svg></g><g><svg viewBox="0 0 333.90454557049503 333.90454557049503" height="333.90454557049503" width="333.90454557049503"><g><path d="M0 166.952c0-92.205 74.747-166.952 166.952-166.952 92.205 0 166.952 74.747 166.953 166.952 0 92.205-74.747 166.952-166.953 166.953-92.205 0-166.952-74.747-166.952-166.953zM166.952 316.63c82.665 0 149.677-67.013 149.678-149.678 0-82.665-67.013-149.677-149.678-149.677-82.665 0-149.677 67.013-149.677 149.677 0 82.665 67.013 149.677 149.677 149.678z" data-fill-palette-color="tertiary" fill="#ff5858" stroke="transparent"></path><ellipse rx="160.27418187383762" ry="160.27418187383762" cx="166.95227278524752" cy="166.95227278524752" fill="#ff5858" stroke="transparent" stroke-width="0" fill-opacity="1" data-fill-palette-color="tertiary"></ellipse></g><g transform="matrix(1,0,0,1,96.3656015141983,71.17305217166896)"><svg viewBox="0 0 141.17334254209842 191.55844122715712" height="191.55844122715712" width="141.17334254209842"><g><svg viewBox="0 0 141.17334254209842 191.55844122715712" height="191.55844122715712" width="141.17334254209842"><g><svg viewBox="0 0 141.17334254209842 191.55844122715712" height="191.55844122715712" width="141.17334254209842"><g><svg viewBox="0 0 141.17334254209842 191.55844122715712" height="191.55844122715712" width="141.17334254209842"><g id="textblocktransform"><svg viewBox="0 0 141.17334254209842 191.55844122715712" height="191.55844122715712" width="141.17334254209842" id="textblock"><g><svg viewBox="0 0 141.17334254209842 191.55844122715712" height="191.55844122715712" width="141.17334254209842"><g transform="matrix(1,0,0,1,0,0)"><svg width="141.17334254209842" viewBox="4.699999809265137 -35 29.700000762939453 40.29999923706055" height="191.55844122715712" data-palette-color="#ffffff"><path d="M29.45-35L34.4-35 34.4-10.4Q34.4-2.8 30.35 1.25 26.3 5.3 19.15 5.3L19.15 5.3Q14.85 5.3 11.33 3.98 7.8 2.65 5.4 0.2L5.4 0.2 7.55-3.7Q12.15 0.8 19.15 0.8L19.15 0.8Q29.45 0.8 29.45-10.2L29.45-10.2 29.45-13.75Q25.95-8.65 18.6-8.65L18.6-8.65Q12-8.65 8.35-12.45 4.7-16.25 4.7-23.3L4.7-23.3 4.7-35 9.7-35 9.7-23.5Q9.7-18.4 12.2-15.75 14.7-13.1 19.15-13.1L19.15-13.1Q23.95-13.1 26.7-15.9 29.45-18.7 29.45-24.25L29.45-24.25 29.45-35Z" opacity="1" transform="matrix(1,0,0,1,0,0)" fill="#ffffff" class="undefined-text-0" data-fill-palette-color="quaternary" id="text-0"></path></svg></g></svg></g></svg></g></svg></g><g></g></svg></g></svg></g></svg></g></svg></g><defs></defs></svg><rect width="333.90454557049503" height="333.90454557049503" fill="none" stroke="none" visibility="hidden"></rect></g></svg></g></svg>